<svg xmlns="http://www.w3.org/2000/svg" viewBox="0 0 512 512">
  <defs>
    <linearGradient id="grad1" x1="0%" y1="0%" x2="100%" y2="100%">
      <stop offset="0%" style="stop-color:#1976D2;stop-opacity:1" />
      <stop offset="100%" style="stop-color:#64B5F6;stop-opacity:1" />
    </linearGradient>
  </defs>
  <path fill="url(#grad1)" d="M224 96l16-32 32-16h-32l-16-32-16 32h-32l32 16zm-64 96h32v48h48v32h-48v48h-32v-48h-48v-32h48zm336 144h-48v-48h-32v48h-48v32h48v48h32v-48h48zm-416-128h384v192h-384zm128-224h128l96 96v128h-448v-192h192v-96h32zm-64 128h-128v128h384v-96l-80-80h-144v-96l-64 64v80z"/>
  <path fill="#E53935" d="M256 208h32v32h-32zm96 0h32v32h-32zm-192 0h32v32h-32z"/>
  <path fill="#fff" d="M256 240h32v32h-32zm96 0h32v32h-32zm-192 0h32v32h-32z"/>
  <circle cx="256" cy="352" r="24" fill="#E53935"/>
  <circle cx="352" cy="352" r="24" fill="#E53935"/>
  <circle cx="160" cy="352" r="24" fill="#E53935"/>
</svg>